<svg width="32" height="15" viewBox="0 0 32 15" fill="none" xmlns="http://www.w3.org/2000/svg">
<path d="M8.37891 3.00781C8.06641 2.63021 7.70833 2.35677 7.30469 2.1875C6.90104 2.01823 6.48438 1.93359 6.05469 1.93359H5.97656V0H5.99609C6.77734 0 7.50651 0.130208 8.18359 0.390625C8.86068 0.651042 9.46615 1.04167 10 1.5625L8.37891 3.00781ZM0 7.36328C0 6.24349 0.130208 5.25391 0.390625 4.39453C0.651042 3.52214 1.00911 2.78646 1.46484 2.1875C1.92057 1.57552 2.46745 1.09375 3.10547 0.742188C3.74349 0.390625 4.43359 0.169271 5.17578 0.078125V2.03125C4.78516 2.13542 4.42057 2.3112 4.08203 2.55859C3.75651 2.80599 3.46354 3.15104 3.20312 3.59375C2.95573 4.02344 2.76042 4.55078 2.61719 5.17578C2.47396 5.78776 2.39583 6.51693 2.38281 7.36328C2.39583 8.20964 2.47396 8.95182 2.61719 9.58984C2.76042 10.2279 2.95573 10.7812 3.20312 11.25C3.46354 11.7057 3.75651 12.0703 4.08203 12.3438C4.42057 12.6172 4.78516 12.806 5.17578 12.9102V14.6875C4.43359 14.5964 3.74349 14.375 3.10547 14.0234C2.46745 13.6589 1.92057 13.1706 1.46484 12.5586C1.00911 11.9466 0.651042 11.2109 0.390625 10.3516C0.130208 9.47917 0 8.48307 0 7.36328ZM10.7422 7.20703V12.7734C10.4427 13.151 10.1042 13.4635 9.72656 13.7109C9.36198 13.9453 8.97135 14.1406 8.55469 14.2969C8.15104 14.4531 7.72786 14.5638 7.28516 14.6289C6.85547 14.694 6.42578 14.7266 5.99609 14.7266H5.97656V13.0078C6.13281 13.0078 6.32161 13.0013 6.54297 12.9883C6.77734 12.9622 7.01172 12.9297 7.24609 12.8906C7.49349 12.8385 7.72135 12.7734 7.92969 12.6953C8.15104 12.6172 8.3138 12.5065 8.41797 12.3633V8.80859H5.97656V7.20703H10.7422ZM18.5234 0.234375V12.8516H25.1445V14.6289H16.1406V0.234375H18.5234Z" fill="white"/>
<path d="M31.168 13.3008C31.168 13.6914 31.0312 14.0234 30.7578 14.2969C30.4844 14.5703 30.1523 14.707 29.7617 14.707C29.3711 14.707 29.0391 14.5703 28.7656 14.2969C28.5052 14.0234 28.375 13.6914 28.375 13.3008C28.375 12.9102 28.5117 12.5846 28.7852 12.3242C29.0586 12.0508 29.3841 11.9141 29.7617 11.9141C30.1523 11.9141 30.4844 12.0508 30.7578 12.3242C31.0312 12.5846 31.168 12.9102 31.168 13.3008Z" fill="#2AEAF8"/>
</svg>